<svg width="31" height="25" viewBox="0 0 31 25" fill="none" xmlns="http://www.w3.org/2000/svg"><g filter="url(#filter0_i)"><path d="M2.287 18.59h3.398V6.41H2.287a2.326 2.326 0 00-1.617.657A2.206 2.206 0 000 8.652v7.696a2.206 2.206 0 00.67 1.586 2.326 2.326 0 001.617.657z" fill="#ABABAB"/></g><path d="M5.585 6.509V18.49H2.287a2.19 2.19 0 01-1.547-.628 2.106 2.106 0 01-.64-1.515V8.652a2.106 2.106 0 01.64-1.515 2.226 2.226 0 011.547-.628h3.298z" stroke="#CDCDCD" stroke-width=".2"/><g filter="url(#filter1_i)"><path d="M7.086 18.591l9.473 6.236c.171.113.373.173.579.173h.205a.84.84 0 00.589-.24.808.808 0 00.243-.576V.816a.808.808 0 00-.243-.577.84.84 0 00-.589-.239h-.205c-.206 0-.408.06-.579.173L7.086 6.409v12.182z" fill="#ABABAB"/></g><path d="M16.614 24.744l-9.428-6.207V6.463L16.614.256l-.047-.072.047.072A.952.952 0 0117.139.1h.205a.74.74 0 01.519.21.709.709 0 01.213.506v23.368a.706.706 0 01-.213.505.74.74 0 01-.519.211h-.205a.953.953 0 01-.524-.156l-.047.072.047-.072z" stroke="#CDCDCD" stroke-width=".2"/><g filter="url(#filter2_i)"><path d="M20.98 16.854l.015.015a.864.864 0 001.195.014 6.043 6.043 0 001.42-1.998 5.942 5.942 0 000-4.771 6.041 6.041 0 00-1.42-1.998.864.864 0 00-1.192.01l-.018.019a.834.834 0 00-.245.608.823.823 0 00.275.595 4.35 4.35 0 011.02 1.436 4.278 4.278 0 010 3.43 4.35 4.35 0 01-1.02 1.437.838.838 0 00-.275.595.823.823 0 00.245.608z" fill="#ABABAB"/></g><path d="M21.05 16.783a.734.734 0 01-.215-.534.723.723 0 01.242-.523h0l.001-.002c.446-.415.8-.915 1.043-1.47a4.378 4.378 0 000-3.51 4.448 4.448 0 00-1.043-1.47h0-.001a.737.737 0 01-.243-.524.722.722 0 01.216-.534l.018-.018a.763.763 0 011.054-.01v.001a5.941 5.941 0 011.397 1.965 5.841 5.841 0 010 4.691 5.94 5.94 0 01-1.397 1.965h0a.765.765 0 01-1.057-.012s0 0 0 0l-.015-.015s0 0 0 0z" stroke="#CDCDCD" stroke-width=".2"/><g filter="url(#filter3_i)"><path d="M23.424 5.747l-.013.013a.825.825 0 00-.25.59.813.813 0 00.252.589 7.703 7.703 0 011.79 2.538 7.575 7.575 0 010 6.047 7.701 7.701 0 01-1.79 2.538.824.824 0 00-.252.588.81.81 0 00.251.59l.014.013a.856.856 0 001.184.018 9.375 9.375 0 002.179-3.09 9.222 9.222 0 00-.001-7.363 9.377 9.377 0 00-2.18-3.09.856.856 0 00-1.184.02z" fill="#ABABAB"/></g><path d="M23.48 5.832h0l.014-.014-.07-.07.07.07a.756.756 0 011.046-.016 9.275 9.275 0 012.156 3.056 9.123 9.123 0 010 7.283 9.275 9.275 0 01-2.154 3.057.756.756 0 01-1.046-.016h0l-.014-.014h0a.724.724 0 01-.22-.517.712.712 0 01.22-.517 7.802 7.802 0 001.813-2.57 7.674 7.674 0 000-6.127 7.803 7.803 0 00-1.813-2.57.727.727 0 01-.222-.517.712.712 0 01.22-.518z" stroke="#CDCDCD" stroke-width=".2"/><g filter="url(#filter4_i)"><path d="M25.86 3.358l-.016.016a.832.832 0 00-.246.598.821.821 0 00.262.591 11.07 11.07 0 012.528 3.63 10.894 10.894 0 01.001 8.616 11.07 11.07 0 01-2.527 3.63.834.834 0 00-.262.591.818.818 0 00.247.598l.015.015a.86.86 0 001.196.009 12.755 12.755 0 002.916-4.184 12.55 12.55 0 00-.001-9.936 12.753 12.753 0 00-2.918-4.183.86.86 0 00-1.195.01z" fill="#ABABAB"/></g><path d="M25.93 4.49h0a11.172 11.172 0 012.55 3.663 10.995 10.995 0 010 8.695 11.17 11.17 0 01-2.55 3.663h0a.735.735 0 00-.23.52.722.722 0 00.217.525l.012-17.065zm0 0h-.002a.733.733 0 01-.23-.52.721.721 0 01.216-.525l.016-.015s0 0 0 0a.76.76 0 011.056-.009 12.652 12.652 0 012.895 4.15 12.447 12.447 0 01.002 9.857 12.654 12.654 0 01-2.894 4.151.76.76 0 01-1.057-.008s0 0 0 0l-.015-.015.012-17.065z" stroke="#CDCDCD" stroke-width=".2"/><defs><filter id="filter0_i" x="0" y="6.409" width="5.685" height="16.182" filterUnits="userSpaceOnUse" color-interpolation-filters="sRGB"><feFlood flood-opacity="0" result="BackgroundImageFix"/><feBlend in="SourceGraphic" in2="BackgroundImageFix" result="shape"/><feColorMatrix in="SourceAlpha" values="0 0 0 0 0 0 0 0 0 0 0 0 0 0 0 0 0 0 127 0" result="hardAlpha"/><feOffset dy="4"/><feGaussianBlur stdDeviation="2"/><feComposite in2="hardAlpha" operator="arithmetic" k2="-1" k3="1"/><feColorMatrix values="0 0 0 0 0 0 0 0 0 0 0 0 0 0 0 0 0 0 0.25 0"/><feBlend in2="shape" result="effect1_innerShadow"/></filter><filter id="filter1_i" x="7.086" y="0" width="11.089" height="29" filterUnits="userSpaceOnUse" color-interpolation-filters="sRGB"><feFlood flood-opacity="0" result="BackgroundImageFix"/><feBlend in="SourceGraphic" in2="BackgroundImageFix" result="shape"/><feColorMatrix in="SourceAlpha" values="0 0 0 0 0 0 0 0 0 0 0 0 0 0 0 0 0 0 127 0" result="hardAlpha"/><feOffset dy="4"/><feGaussianBlur stdDeviation="2"/><feComposite in2="hardAlpha" operator="arithmetic" k2="-1" k3="1"/><feColorMatrix values="0 0 0 0 0 0 0 0 0 0 0 0 0 0 0 0 0 0 0.25 0"/><feBlend in2="shape" result="effect1_innerShadow"/></filter><filter id="filter2_i" x="20.734" y="7.884" width="3.377" height="13.231" filterUnits="userSpaceOnUse" color-interpolation-filters="sRGB"><feFlood flood-opacity="0" result="BackgroundImageFix"/><feBlend in="SourceGraphic" in2="BackgroundImageFix" result="shape"/><feColorMatrix in="SourceAlpha" values="0 0 0 0 0 0 0 0 0 0 0 0 0 0 0 0 0 0 127 0" result="hardAlpha"/><feOffset dy="4"/><feGaussianBlur stdDeviation="2"/><feComposite in2="hardAlpha" operator="arithmetic" k2="-1" k3="1"/><feColorMatrix values="0 0 0 0 0 0 0 0 0 0 0 0 0 0 0 0 0 0 0.25 0"/><feBlend in2="shape" result="effect1_innerShadow"/></filter><filter id="filter3_i" x="23.16" y="5.501" width="4.395" height="17.998" filterUnits="userSpaceOnUse" color-interpolation-filters="sRGB"><feFlood flood-opacity="0" result="BackgroundImageFix"/><feBlend in="SourceGraphic" in2="BackgroundImageFix" result="shape"/><feColorMatrix in="SourceAlpha" values="0 0 0 0 0 0 0 0 0 0 0 0 0 0 0 0 0 0 127 0" result="hardAlpha"/><feOffset dy="4"/><feGaussianBlur stdDeviation="2"/><feComposite in2="hardAlpha" operator="arithmetic" k2="-1" k3="1"/><feColorMatrix values="0 0 0 0 0 0 0 0 0 0 0 0 0 0 0 0 0 0 0.25 0"/><feBlend in2="shape" result="effect1_innerShadow"/></filter><filter id="filter4_i" x="25.598" y="3.114" width="5.402" height="22.774" filterUnits="userSpaceOnUse" color-interpolation-filters="sRGB"><feFlood flood-opacity="0" result="BackgroundImageFix"/><feBlend in="SourceGraphic" in2="BackgroundImageFix" result="shape"/><feColorMatrix in="SourceAlpha" values="0 0 0 0 0 0 0 0 0 0 0 0 0 0 0 0 0 0 127 0" result="hardAlpha"/><feOffset dy="4"/><feGaussianBlur stdDeviation="2"/><feComposite in2="hardAlpha" operator="arithmetic" k2="-1" k3="1"/><feColorMatrix values="0 0 0 0 0 0 0 0 0 0 0 0 0 0 0 0 0 0 0.25 0"/><feBlend in2="shape" result="effect1_innerShadow"/></filter></defs></svg>