<svg width="25" height="16" viewBox="0 0 25 16" fill="none" xmlns="http://www.w3.org/2000/svg"><path d="M24.084 0H.916a.908.908 0 00-.648.273.94.94 0 00-.268.66v14.135a.94.94 0 00.268.659.908.908 0 00.648.273h23.168a.908.908 0 00.648-.273.94.94 0 00.268-.66V.933a.94.94 0 00-.268-.659.908.908 0 00-.648-.273zM11.17 3.976a1.33 1.33 0 012.66 0v.048a1.33 1.33 0 01-2.66 0v-.048zm0 4a1.33 1.33 0 012.66 0v.048a1.33 1.33 0 01-2.66 0v-.048zm-3.93-4a1.33 1.33 0 112.66 0v.048a1.33 1.33 0 01-2.66 0v-.048zm0 4a1.33 1.33 0 112.66 0v.048a1.33 1.33 0 01-2.66 0v-.048zm-1.3 4.048a1.33 1.33 0 01-2.66 0v-.048a1.33 1.33 0 012.66 0v.048zm0-4a1.33 1.33 0 01-2.66 0v-.048a1.33 1.33 0 012.66 0v.048zm0-4a1.33 1.33 0 01-2.66 0v-.048a1.33 1.33 0 012.66 0v.048zm11.82 8.006c0 .748-.606 1.354-1.353 1.354H8.593a1.353 1.353 0 010-2.707h7.814c.747 0 1.353.606 1.353 1.353zm0-3.976a1.33 1.33 0 11-2.66 0v-.048a1.33 1.33 0 112.66 0v.048zm0-4a1.33 1.33 0 11-2.66 0v-.048a1.33 1.33 0 112.66 0v.048zm3.93 7.97a1.33 1.33 0 01-2.66 0v-.048a1.33 1.33 0 012.66 0v.048zm0-4a1.33 1.33 0 01-2.66 0v-.048a1.33 1.33 0 012.66 0v.048zm0-4a1.33 1.33 0 01-2.66 0v-.048a1.33 1.33 0 012.66 0v.048z" fill="#191A1B"/></svg>