<svg width="65" height="25" viewBox="0 0 65 25" fill="none" xmlns="http://www.w3.org/2000/svg"><g clip-path="url(#clip0)"><path d="M33.558 8.42l3.093-.198c.07.502.2.876.411 1.145.341.421.812.632 1.435.632.458 0 .823-.106 1.07-.328a.94.94 0 00.376-.748c0-.28-.13-.55-.353-.725-.235-.21-.788-.42-1.658-.608-1.422-.315-2.445-.736-3.045-1.274a2.532 2.532 0 01-.917-2.022c0-.538.164-1.076.47-1.52.353-.503.835-.9 1.411-1.122.623-.27 1.493-.41 2.587-.41 1.34 0 2.363.246 3.069.749.705.49 1.129 1.286 1.258 2.373l-3.057.175c-.082-.467-.247-.806-.517-1.028-.271-.223-.624-.328-1.082-.328-.377 0-.659.082-.847.234a.708.708 0 00-.282.585c0 .175.094.339.235.444.153.14.517.269 1.094.386 1.422.303 2.434.607 3.057.923.623.316 1.07.701 1.34 1.157.282.468.423 1.006.412 1.555 0 .655-.188 1.31-.565 1.859a3.563 3.563 0 01-1.563 1.286c-.67.292-1.517.444-2.529.444-1.787 0-3.021-.339-3.715-1.029S33.64 9.473 33.558 8.42zM.741 11.88V1.43h5.42c1 0 1.776.082 2.305.257.517.164.976.503 1.282.958.34.503.505 1.088.494 1.696a2.792 2.792 0 01-1.4 2.525 3.6 3.6 0 01-1.14.409c.294.082.588.222.846.386.2.163.365.35.518.549.176.199.329.42.458.655l1.576 3.027H7.408l-1.74-3.214c-.224-.41-.412-.678-.588-.807a1.402 1.402 0 00-.8-.246h-.282v4.244H.74v.012zm3.257-6.218h1.376c.294-.024.576-.07.858-.14a.824.824 0 00.529-.328c.318-.42.27-1.017-.118-1.38-.211-.175-.623-.268-1.21-.268H3.997v2.116zM0 20.835l3.092-.198c.071.502.2.877.412 1.145.33.421.811.643 1.435.643.458 0 .823-.105 1.07-.327a.957.957 0 00.376-.748c0-.28-.13-.55-.353-.725-.235-.21-.788-.42-1.67-.608-1.422-.316-2.445-.736-3.045-1.274-.6-.503-.94-1.24-.917-2.022 0-.538.164-1.076.47-1.52.353-.503.835-.9 1.411-1.123.623-.268 1.493-.409 2.587-.409 1.34 0 2.363.246 3.069.748.705.503 1.117 1.286 1.246 2.374l-3.057.175c-.082-.468-.247-.807-.517-1.029-.259-.222-.623-.327-1.082-.315-.376 0-.659.081-.847.245a.678.678 0 00-.282.585c0 .175.094.339.235.444.153.14.518.269 1.094.386 1.423.304 2.434.608 3.057.923.623.316 1.07.702 1.34 1.158a2.99 2.99 0 01.424 1.543c0 .654-.2 1.297-.565 1.847a3.563 3.563 0 01-1.564 1.286c-.67.292-1.516.444-2.528.444-1.787 0-3.021-.34-3.715-1.029C.482 22.753.094 21.888 0 20.835z" fill="#fff"/><path d="M15.639 20.017l2.845.854a5.266 5.266 0 01-.905 1.987c-.4.526-.93.935-1.529 1.204-.611.269-1.387.41-2.328.41-1.14 0-2.081-.165-2.798-.492-.73-.327-1.353-.912-1.882-1.742-.529-.83-.788-1.894-.788-3.191 0-1.73.459-3.063 1.388-3.987.929-.923 2.234-1.39 3.927-1.39 1.329 0 2.363.268 3.128.794.752.538 1.317 1.356 1.693 2.455l-2.869.631a2.527 2.527 0 00-.318-.701 1.864 1.864 0 00-.67-.573 1.91 1.91 0 00-.882-.198c-.74 0-1.305.292-1.693.888-.294.432-.447 1.122-.447 2.057 0 1.158.177 1.953.53 2.385.352.433.846.643 1.493.643.623 0 1.093-.175 1.41-.514.318-.363.553-.865.695-1.52zm6.643-6.172h3.245v3.659h3.551v-3.66h3.27v10.452h-3.27v-4.232h-3.55v4.232h-3.246V13.845z" fill="#fff"/><path d="M31.9 19.07c0-1.707.482-3.04 1.435-3.986.952-.947 2.293-1.426 3.998-1.426 1.752 0 3.092.467 4.044 1.402.953.936 1.423 2.245 1.423 3.928 0 1.228-.211 2.221-.623 3.005a4.392 4.392 0 01-1.787 1.823c-.788.433-1.764.655-2.928.655-1.188 0-2.164-.187-2.94-.561a4.472 4.472 0 01-1.893-1.777c-.482-.818-.729-1.835-.729-3.063zm3.246.012c0 1.052.2 1.812.587 2.28.389.455.93.69 1.611.69.694 0 1.235-.223 1.623-.679.388-.456.576-1.262.576-2.431 0-.982-.2-1.707-.6-2.151-.4-.456-.94-.678-1.622-.678a1.996 1.996 0 00-1.576.69c-.4.455-.6 1.215-.6 2.279zm10.982-.012c0-1.707.482-3.04 1.434-3.986.953-.947 2.293-1.426 3.998-1.426 1.752 0 3.104.467 4.045 1.402.94.936 1.423 2.245 1.423 3.928 0 1.228-.212 2.221-.623 3.005a4.392 4.392 0 01-1.788 1.823c-.787.433-1.763.655-2.927.655-1.188 0-2.164-.187-2.94-.561a4.471 4.471 0 01-1.893-1.777c-.482-.818-.73-1.835-.73-3.063zm3.245.012c0 1.052.2 1.812.588 2.28.388.455.929.69 1.611.69.694 0 1.235-.223 1.623-.679.388-.456.576-1.262.576-2.431 0-.982-.2-1.707-.6-2.151-.4-.456-.94-.678-1.623-.678a1.98 1.98 0 00-1.575.69c-.4.455-.6 1.215-.6 2.279z" fill="#fff"/><path d="M56.687 13.845h3.245v7.879H65v2.572h-8.325V13.845h.012z" fill="#fff"/><path d="M53.094 13.243c3.265-2.451 4.273-6.606 2.251-9.279-2.021-2.673-6.307-2.853-9.571-.401-3.265 2.451-4.273 6.606-2.251 9.279 2.021 2.673 6.307 2.853 9.571.401z" stroke="#fff" stroke-width=".589" stroke-miterlimit="10"/><path d="M53.094 13.243c3.265-2.451 4.273-6.606 2.251-9.279-2.021-2.673-6.307-2.853-9.571-.401-3.265 2.451-4.273 6.606-2.251 9.279 2.021 2.673 6.307 2.853 9.571.401z" stroke="#fff" stroke-width=".589" stroke-miterlimit="10"/><path d="M46.14 7.637l1.176-.818 1.446 2.046c.247.327.435.678.576 1.063.082.293.059.608-.059.889-.153.35-.4.643-.729.853-.388.27-.717.421-1 .468-.27.047-.552 0-.81-.117a1.96 1.96 0 01-.718-.596l1.011-.935c.083.128.189.245.306.339a.48.48 0 00.282.093.373.373 0 00.224-.082c.117-.07.2-.21.188-.35a1.171 1.171 0 00-.247-.55L46.14 7.637zm3.527 1.298l1.07-.842c.118.14.27.246.435.304.236.07.483.023.682-.129a.71.71 0 00.306-.385.41.41 0 00-.259-.515.344.344 0 00-.105-.023c-.142-.012-.388.047-.753.199-.6.245-1.07.339-1.423.304a1.136 1.136 0 01-.846-.503 1.256 1.256 0 01-.224-.666c0-.27.07-.538.224-.76a2.94 2.94 0 01.823-.795c.494-.34.929-.503 1.305-.503.376 0 .729.175 1.058.538l-1.058.83a.637.637 0 00-.882-.117l-.035.035a.575.575 0 00-.247.304.303.303 0 00.047.28.262.262 0 00.2.106c.094.011.258-.035.494-.14.588-.246 1.034-.386 1.34-.433a1.36 1.36 0 01.776.082 1.2 1.2 0 01.541.456 1.493 1.493 0 01.035 1.66 2.866 2.866 0 01-.8.795c-.646.444-1.175.63-1.598.56a1.727 1.727 0 01-1.106-.642z" fill="#fff"/></g><defs><clipPath id="clip0"><path fill="#fff" transform="translate(0 .471)" d="M0 0h65v24H0z"/></clipPath></defs></svg>