<svg width="16" height="16" viewBox="0 0 16 16" fill="none" xmlns="http://www.w3.org/2000/svg"><path d="M7.461 5.094a2.386 2.386 0 00-2.383 2.384A2.386 2.386 0 007.46 9.86a2.386 2.386 0 002.384-2.383A2.386 2.386 0 007.46 5.094z" fill="#191A1B"/><path d="M7.951 0A7.95 7.95 0 000 7.951a7.95 7.95 0 007.951 7.951 7.95 7.95 0 007.951-7.951A7.95 7.95 0 007.951 0zm3.87 12.033a.694.694 0 01-.49.18.723.723 0 01-.49-.18L9.339 10.53l-.147.081a3.607 3.607 0 01-1.73.457 3.574 3.574 0 01-3.576-3.575 3.574 3.574 0 117.151 0c0 .702-.196 1.371-.588 1.96l-.098.162 1.486 1.486c.114.13.196.294.196.473a.744.744 0 01-.213.458z" fill="#191A1B"/></svg>