<svg width="22" height="22" viewBox="0 0 22 22" fill="none" xmlns="http://www.w3.org/2000/svg"><circle cx="11" cy="11" r="11" fill="#EB3D3E"/><path d="M11 8.116A2.89 2.89 0 008.116 11 2.89 2.89 0 0011 13.884 2.89 2.89 0 0013.884 11 2.89 2.89 0 0011 8.116z" fill="#000"/><path d="M11 0C4.913 0 0 4.913 0 11s4.913 11 11 11 11-4.913 11-11S17.087 0 11 0zm6.478 11.733a.39.39 0 01-.294.367l-1.662.367a3.398 3.398 0 01-.293.684l.929 1.442a.37.37 0 01-.05.465l-1.026 1.026a.37.37 0 01-.464.05l-1.442-.93a3.61 3.61 0 01-.71.294l-.366 1.686a.39.39 0 01-.367.294h-1.466a.39.39 0 01-.367-.294l-.367-1.662a3.608 3.608 0 01-.709-.293l-1.442.929a.37.37 0 01-.464-.05L5.89 15.083a.37.37 0 01-.049-.464l.93-1.442a3.61 3.61 0 01-.294-.71L4.816 12.1a.39.39 0 01-.294-.367v-1.466a.39.39 0 01.294-.367l1.662-.367c.073-.244.17-.489.293-.709l-.904-1.442a.37.37 0 01.049-.464L6.942 5.89a.37.37 0 01.465-.049l1.442.93c.22-.123.464-.22.709-.294l.366-1.662a.39.39 0 01.367-.294h1.467a.39.39 0 01.366.294l.367 1.686c.245.074.465.171.709.294l1.442-.93a.37.37 0 01.465.05l1.026 1.026a.37.37 0 01.05.465l-.93 1.442c.123.22.22.464.294.684l1.686.367a.39.39 0 01.294.367v1.466h-.05z" fill="#000"/></svg>