<svg width="24" height="25" viewBox="0 0 24 25" fill="none" xmlns="http://www.w3.org/2000/svg"><path d="M7.07 7.104l.047.056.319.385c.056.07.116.14.176.213.304.366.647.78 1.009 1.213l.438.525.444.531.027.033c.067.08.133.16.2.238.011.013.022.027.035.04l.154.186.098.118c.01.01.019.022.028.033l.062.074.076.093c.01.014.024.027.034.042l.093.11.064.077.076.093c.022.027.046.052.067.08.011.012.022.027.035.04l.104.123.032.038c.02.026.042.05.062.073l.064.076.03.037c.128.15.246.294.359.427.005.006.01.013.016.018.035.04.066.079.098.117.019.021.037.043.053.063l.024.03.152.181.166.197.04.049.002.002.138.165.002.002.05.06.012.009c.02.014.052.016.072 0l.011-.01.044-.05c.01-.015.024-.03.036-.044l.097-.114a.705.705 0 00.034-.042l.01-.011.057-.07h.002l.053-.065.042-.05c.05-.062.105-.126.163-.197l.024-.027.076-.091c.024-.027.048-.056.071-.085l.26-.311c.019-.02.035-.042.053-.062.005-.008.013-.015.018-.022.026-.03.053-.062.078-.095l.084-.1.05-.058.02-.025.12-.142.03-.036a39.696 39.696 0 00.336-.404c.024-.03.05-.058.073-.087.004-.004.007-.01.011-.013.03-.038.064-.076.096-.115.028-.03.053-.063.08-.094l.153-.184.046-.054.196-.235.025-.029c.148-.176.295-.354.444-.53l.438-.526 1.01-1.213.176-.213.318-.385.045-.055a7.28 7.28 0 00-4.916-1.903 7.29 7.29 0 00-4.922 1.9zm7.016 8.889a.22.22 0 00-.338.054l-1.11 1.927-.274.475a.284.284 0 01-.245.142h-.262a.285.285 0 01-.247-.144l-.002-.002-1.382-2.401a.22.22 0 00-.338-.055l-1.031.92-1.433 1.28a7.265 7.265 0 004.562 1.602c1.727 0 3.313-.6 4.564-1.604l-.551-.492-1.913-1.702zm-7.8-4.173l-1.058-1.78-.07-.118a7.266 7.266 0 00-.472 2.578c0 .993.199 1.937.559 2.799l.278-.34 1.494-1.828a.54.54 0 00.031-.038 145.722 145.722 0 01-.762-1.273z" fill="#fff"/><path d="M12 .471c-6.627 0-12 5.37-12 11.993s5.373 11.992 12 11.992 12-5.369 12-11.992C24 5.84 18.627.47 12 .47zm9.382 18.316h-4.146a.065.065 0 01-.018-.003l-.003.003-.002-.001a8.152 8.152 0 01-5.228 1.887 8.149 8.149 0 01-5.225-1.887h-.002l-.003-.004c-.006.002-.011.004-.019.004H2.591a.096.096 0 01-.075-.157l2.104-2.573a8.136 8.136 0 01-.815-3.56c0-4.514 3.662-8.174 8.18-8.174 4.519 0 8.18 3.66 8.18 8.174a8.16 8.16 0 01-.812 3.559l.798.974 1.305 1.597.004.003c.047.064.004.158-.078.158z" fill="#fff"/><path d="M18.748 10.038c-.333.559-.724 1.219-1.059 1.78l-.754 1.268-.005.005.027.035.003.005 1.77 2.164a7.266 7.266 0 00.556-2.797 7.25 7.25 0 00-.47-2.574l-.068.114z" fill="#fff"/></svg>