<svg width="24" height="24" viewBox="0 0 24 24" fill="none" xmlns="http://www.w3.org/2000/svg"><path d="M17 9.28a2 2 0 100-4 2 2 0 000 4zM2.71 13.92c.198.063.39.147.57.25a4.06 4.06 0 004.1 0 2.62 2.62 0 012.56 0l.21.1a4.14 4.14 0 003.87-.13 2.62 2.62 0 012.56 0 4.25 4.25 0 002.08.56 4 4 0 002-.56c.18-.103.372-.187.57-.25a.999.999 0 10-.52-1.89 4.821 4.821 0 00-1 .44 2.1 2.1 0 01-2.1 0 4.62 4.62 0 00-4.54 0 2.51 2.51 0 01-.29.12L14.34 11a.743.743 0 00.09-.15.995.995 0 00.12-.16 1.282 1.282 0 000-.19 1.058 1.058 0 000-.19c.005-.06.005-.12 0-.18a1.057 1.057 0 000-.19 1.511 1.511 0 00-.1-.17.698.698 0 00-.1-.16l-3.07-3.33a1.1 1.1 0 00-.28-.22.8.8 0 00-.21 0 .53.53 0 00-.17 0A.89.89 0 0010.2 6L6.66 7.32a1 1 0 00.68 1.88l2.93-1.07 2 2.12-1.9 1.9a4.621 4.621 0 00-3.94.28 2.1 2.1 0 01-2.1 0 4.82 4.82 0 00-1-.44 1 1 0 10-.58 1.91l-.04.02zm18 3.09a4.821 4.821 0 00-1 .44 2.1 2.1 0 01-2.1 0 4.62 4.62 0 00-4.54 0 2.11 2.11 0 01-2.12 0 4.62 4.62 0 00-4.54 0 2.1 2.1 0 01-2.1 0 4.82 4.82 0 00-1-.44 1 1 0 10-.58 1.91c.198.063.39.147.57.25a4.06 4.06 0 004.1 0 2.62 2.62 0 012.56 0 4.15 4.15 0 004.12 0 2.62 2.62 0 012.56 0 4.25 4.25 0 002.08.56 4 4 0 002-.56c.18-.103.372-.187.57-.25a1.003 1.003 0 10-.58-1.92v.01z" fill="#B7FFE4"/></svg>