<svg width="21" height="20" viewBox="0 0 21 20" fill="none" xmlns="http://www.w3.org/2000/svg"><path d="M14.915 2.203l.381.22.42-.131c1.092-.343 1.94-.49 2.56-.485.625.005.884.16.99.27.096.101.235.344.186.948-.05.609-.286 1.454-.782 2.568l-.179.403.177.404a8.966 8.966 0 01.748 3.6 9 9 0 01-18 0c0-1.282.268-2.499.749-3.6l.192-.44-.224-.426c-.67-1.272-1.004-2.21-1.102-2.866-.098-.654.059-.835.106-.879.086-.08.368-.232 1.105-.185.708.045 1.658.264 2.845.678l.433.151.397-.23A8.954 8.954 0 0110.417 1c1.64 0 3.176.438 4.498 1.203z" stroke="#B7FFE4" stroke-width="2"/><circle cx="7.416" cy="8" r="1" fill="#B7FFE4"/><circle cx="13.416" cy="8" r="1" fill="#B7FFE4"/><path d="M13.416 13c0 .672-.881 2-3 2-2.118 0-3-1.328-3-2 0-.22-.021-.44-.037-.602l-.006-.057a2.653 2.653 0 01-.02-.388.475.475 0 01.006-.052.391.391 0 01.04-.025c-.003.002-.003.002.002 0 .018-.005.098-.03.282-.042.213-.014.48-.006.794.017.18.014.393.034.617.056.455.044.955.093 1.322.093.392 0 .91-.055 1.37-.103.216-.023.418-.044.59-.058.309-.025.566-.033.77-.019.197.014.266.045.267.044l-.003-.002c.019.011.03.02.035.024.004.011.011.04.016.094a2.84 2.84 0 01-.01.394 7.114 7.114 0 00-.034.626zm-6.053-1.116s0 0 0 0h0zm-.016.026a.017.017 0 01-.002.003l.002-.003zm6.104-.018l-.003-.003a.014.014 0 01.003.003z" stroke="#B7FFE4" stroke-width="2"/></svg>