<svg width="29" height="29" viewBox="0 0 29 29" fill="none" xmlns="http://www.w3.org/2000/svg"><circle cx="14.5" cy="14.5" r="14.5" fill="#F7F7F7"/><path fill-rule="evenodd" clip-rule="evenodd" d="M11.128 20.834l.664-1.15c3.177 1.274 6.901.054 8.663-2.997 1.434-2.484 1.23-5.45-.389-7.633-.373-.502-1.128-.51-1.54-.04a.987.987 0 00-.046 1.246c1.18 1.568 1.271 3.646.246 5.422a5.02 5.02 0 01-5.923 2.25l.593-1.027c.303-.524.014-.982-.5-1.134l-4.922-.047c-.641.059-.89.488-.71.93l2.632 4.313c.299.317.93.39 1.232-.133z" fill="#000"/></svg>