<svg width="81" height="30" viewBox="0 0 81 30" fill="none" xmlns="http://www.w3.org/2000/svg"><g clip-path="url(#clip0)"><path d="M41.819 9.937l3.853-.249c.088.629.25 1.096.513 1.432.425.526 1.011.79 1.788.79.571 0 1.026-.132 1.333-.41a1.158 1.158 0 00.03-1.841c-.294-.263-.982-.526-2.066-.76-1.773-.394-3.048-.92-3.796-1.593a3.17 3.17 0 01-1.142-2.528c0-.672.205-1.344.586-1.9a3.85 3.85 0 011.758-1.402c.777-.336 1.86-.512 3.224-.512 1.67 0 2.945.307 3.824.936.88.613 1.407 1.607 1.568 2.966l-3.81.22c-.102-.585-.308-1.009-.645-1.287-.337-.277-.776-.409-1.348-.409-.469 0-.82.102-1.055.292a.886.886 0 00-.351.731c0 .22.117.424.293.555.19.176.644.336 1.362.483 1.773.38 3.034.76 3.81 1.154.777.395 1.334.877 1.67 1.447.352.584.528 1.256.513 1.943 0 .819-.234 1.637-.703 2.324a4.442 4.442 0 01-1.949 1.607c-.835.365-1.89.555-3.15.555-2.227 0-3.766-.424-4.63-1.286-.865-.862-1.378-1.943-1.48-3.258zM.923 14.262V1.198h6.755c1.245 0 2.213.103 2.872.322a3.035 3.035 0 011.597 1.198c.425.628.63 1.359.615 2.119a3.493 3.493 0 01-1.743 3.156c-.44.249-.923.424-1.421.512a4.02 4.02 0 011.054.482c.25.204.455.438.645.687.22.248.41.526.572.818l1.963 3.785h-4.6l-2.17-4.019c-.278-.511-.512-.847-.732-1.008a1.743 1.743 0 00-.996-.307h-.352v5.305H.923v.014zm4.059-7.774h1.714a6.69 6.69 0 001.07-.175c.264-.044.498-.19.66-.41a1.297 1.297 0 00-.147-1.724c-.264-.219-.777-.336-1.51-.336H4.983v2.645zM0 25.456l3.854-.249c.088.628.249 1.096.513 1.432.41.526 1.01.804 1.787.804.572 0 1.026-.132 1.334-.41.293-.233.468-.57.468-.935 0-.35-.16-.686-.44-.906-.292-.263-.98-.526-2.08-.76-1.773-.394-3.048-.92-3.795-1.592a3.17 3.17 0 01-1.143-2.528c0-.672.205-1.345.586-1.9a3.85 3.85 0 011.759-1.403c.776-.336 1.86-.511 3.223-.511 1.67 0 2.945.307 3.825.935.879.628 1.392 1.608 1.553 2.966l-3.81.22c-.103-.585-.308-1.009-.645-1.286-.322-.278-.776-.41-1.348-.395-.469 0-.82.103-1.055.307a.848.848 0 00-.351.73c0 .22.117.424.293.556.19.175.644.336 1.362.482 1.773.38 3.033.76 3.81 1.155.777.394 1.334.876 1.67 1.446.352.585.528 1.257.528 1.93 0 .817-.25 1.621-.703 2.308a4.443 4.443 0 01-1.95 1.607c-.834.366-1.89.556-3.15.556-2.227 0-3.765-.424-4.63-1.286C.601 27.852.117 26.77 0 25.456z" fill="#000"/><path d="M19.488 24.433l3.546 1.066a6.59 6.59 0 01-1.128 2.484A4.907 4.907 0 0120 29.488c-.762.337-1.73.512-2.901.512-1.422 0-2.594-.205-3.488-.614-.908-.409-1.685-1.14-2.344-2.177-.66-1.038-.982-2.367-.982-3.99 0-2.162.572-3.828 1.73-4.982 1.157-1.155 2.783-1.74 4.893-1.74 1.656 0 2.945.337 3.898.994.938.673 1.64 1.695 2.11 3.07l-3.576.788a3.16 3.16 0 00-.395-.877 2.324 2.324 0 00-.835-.716 2.376 2.376 0 00-1.1-.248c-.922 0-1.626.365-2.11 1.11-.366.541-.556 1.403-.556 2.572 0 1.447.22 2.44.66 2.982.439.54 1.054.803 1.86.803.777 0 1.363-.219 1.759-.643.395-.453.688-1.081.864-1.9zm8.279-7.716h4.044v4.574h4.425v-4.574h4.074v13.064h-4.074v-5.29h-4.425v5.29h-4.044V16.717z" fill="#000"/><path d="M39.753 23.249c0-2.134.6-3.8 1.788-4.983 1.186-1.184 2.857-1.783 4.982-1.783 2.183 0 3.853.585 5.04 1.754 1.187 1.169 1.773 2.805 1.773 4.91 0 1.534-.264 2.776-.777 3.755a5.482 5.482 0 01-2.227 2.28c-.982.54-2.198.818-3.648.818-1.48 0-2.696-.234-3.663-.701a5.578 5.578 0 01-2.36-2.222c-.6-1.023-.908-2.294-.908-3.828zm4.044.015c0 1.315.25 2.265.733 2.849.483.57 1.157.862 2.007.862.865 0 1.539-.277 2.022-.847.484-.57.718-1.579.718-3.04 0-1.227-.249-2.133-.747-2.689-.498-.57-1.172-.847-2.022-.847a2.484 2.484 0 00-1.964.862c-.498.57-.747 1.52-.747 2.85zm13.686-.015c0-2.134.6-3.8 1.787-4.983 1.187-1.184 2.858-1.783 4.982-1.783 2.184 0 3.869.585 5.04 1.754 1.173 1.169 1.774 2.805 1.774 4.91 0 1.534-.264 2.776-.777 3.755a5.482 5.482 0 01-2.227 2.28c-.982.54-2.198.818-3.649.818-1.48 0-2.696-.234-3.663-.701a5.578 5.578 0 01-2.359-2.222c-.6-1.023-.908-2.294-.908-3.828zm4.044.015c0 1.315.249 2.265.732 2.849.484.57 1.158.862 2.008.862.864 0 1.538-.277 2.022-.847.483-.57.718-1.579.718-3.04 0-1.227-.25-2.133-.747-2.689-.499-.57-1.173-.847-2.022-.847a2.464 2.464 0 00-1.964.862c-.498.57-.747 1.52-.747 2.85z" fill="#000"/><path d="M70.64 16.717h4.045v9.849H81v3.215H70.626V16.717h.015zm-4.477-.752c4.068-3.064 5.324-8.257 2.805-11.599C66.45 1.025 61.11.8 57.041 3.865c-4.068 3.064-5.324 8.257-2.805 11.598 2.52 3.342 7.86 3.566 11.927.502z" fill="#000"/><path d="M66.163 15.965c4.068-3.064 5.324-8.257 2.805-11.599C66.45 1.025 61.11.8 57.041 3.865c-4.068 3.064-5.324 8.257-2.805 11.598 2.52 3.342 7.86 3.566 11.927.502z" stroke="#000" stroke-width=".767" stroke-miterlimit="10"/><path d="M66.163 15.965c4.068-3.064 5.324-8.257 2.805-11.599C66.45 1.025 61.11.8 57.041 3.865c-4.068 3.064-5.324 8.257-2.805 11.598 2.52 3.342 7.86 3.566 11.927.502z" fill="#fff" stroke="#000" stroke-width=".767" stroke-miterlimit="10"/><path d="M66.163 15.965c4.068-3.064 5.324-8.257 2.805-11.599C66.45 1.025 61.11.8 57.041 3.865c-4.068 3.064-5.324 8.257-2.805 11.598 2.52 3.342 7.86 3.566 11.927.502z" stroke="#000" stroke-width=".767" stroke-miterlimit="10"/><path d="M57.497 8.958l1.465-1.023 1.803 2.557c.307.41.542.847.718 1.33a1.7 1.7 0 01-.074 1.11c-.19.439-.498.804-.908 1.067-.484.336-.894.526-1.246.585-.337.058-.688 0-1.01-.147a2.445 2.445 0 01-.894-.745l1.26-1.169c.102.16.234.307.38.424a.6.6 0 00.352.117.464.464 0 00.279-.103.484.484 0 00.234-.438 1.467 1.467 0 00-.308-.687l-2.05-2.878zm4.396 1.622l1.333-1.053c.147.176.337.307.543.38.292.088.6.03.85-.16a.887.887 0 00.38-.483.512.512 0 00-.322-.643.428.428 0 00-.132-.029c-.176-.014-.484.059-.938.249-.747.307-1.333.423-1.773.38a1.415 1.415 0 01-1.055-.629 1.573 1.573 0 01-.278-.833c0-.336.088-.672.278-.95.279-.394.616-.73 1.026-.993.615-.424 1.158-.628 1.627-.628.468 0 .908.219 1.318.672l-1.319 1.037a.792.792 0 00-1.098-.146l-.044.044a.719.719 0 00-.308.38.38.38 0 00.058.35.327.327 0 00.25.132c.117.015.322-.044.615-.175.733-.307 1.29-.483 1.67-.541.323-.058.66-.03.967.102.279.117.513.322.675.57.205.292.322.643.337 1.008.014.38-.088.746-.294 1.067-.263.395-.6.73-.996.994-.806.555-1.465.789-1.993.701a2.151 2.151 0 01-1.377-.803z" fill="#000"/></g><defs><clipPath id="clip0"><path fill="#fff" d="M0 0h81v30H0z"/></clipPath></defs></svg>