<svg width="32" height="30" viewBox="0 0 32 30" fill="none" xmlns="http://www.w3.org/2000/svg"><path d="M30.41 11.459h0l.001.005a1.825 1.825 0 01-.56 1.969l-6.26 5.228-.24.2.076.304 1.987 8.066h0l.001.006a1.82 1.82 0 01-.69 1.925l-.001.002a1.728 1.728 0 01-1.954.06h-.002l-6.98-4.439-.012-.007-.013-.008a.528.528 0 00-.56.022L8.728 28.91h-.001a1.961 1.961 0 01-2.213-.069h0a2.05 2.05 0 01-.781-2.181v-.003l1.87-7.384.077-.302-.238-.202-6.288-5.334h0l-.002-.002a1.818 1.818 0 01-.56-1.969h0l.002-.005a1.774 1.774 0 011.567-1.231l8.174-.533.314-.02.117-.294 3.095-7.75h0l.002-.004A1.766 1.766 0 0115.499.5h.001s0 0 0 0a1.754 1.754 0 011.64 1.127l.002.003 3.049 7.705.115.293.314.022 8.22.577h.002a1.76 1.76 0 011.567 1.232z" fill="#FFCE51" stroke="#FFCE51"/></svg>